<svg xmlns="http://www.w3.org/2000/svg" xmlns:xlink="http://www.w3.org/1999/xlink" viewBox="0 0 200 150" width="200" height="150" preserveAspectRatio="xMidYMid meet" style="width: 100%; height: 100%; transform: translate3d(0px, 0px, 0px); content-visibility: visible;"><defs><clipPath id="__lottie_element_2342"><rect width="200" height="150" x="0" y="0"></rect></clipPath></defs><g clip-path="url(#__lottie_element_2342)"><g transform="matrix(1,0,0,1,97.75,73.4729995727539)" opacity="1" style="display: block;"><g opacity="1" transform="matrix(1,0,0,1,-74.94200134277344,1.5269999504089355)"><path fill="rgb(255,255,255)" fill-opacity="1" d=" M3,-16.90625 C3,-16.90625 3,16.939062118530273 3,16.939062118530273 C3,18.59606170654297 1.656999945640564,19.939062118530273 0,19.939062118530273 C-1.656999945640564,19.939062118530273 -3,18.59606170654297 -3,16.939062118530273 C-3,16.939062118530273 -3,-16.90625 -3,-16.90625 C-3,-18.563249588012695 -1.656999945640564,-19.90625 0,-19.90625 C1.656999945640564,-19.90625 3,-18.563249588012695 3,-16.90625z"></path></g></g><g transform="matrix(1,0,0,1,109.875,73.4729995727539)" opacity="1" style="display: block;"><g opacity="1" transform="matrix(1,0,0,1,-74.94200134277344,1.5269999504089355)"><path fill="rgb(255,255,255)" fill-opacity="1" d=" M3,-2.09375 C3,-2.09375 3,7.310937404632568 3,7.310937404632568 C3,8.967937469482422 1.656999945640564,10.310937881469727 0,10.310937881469727 C-1.656999945640564,10.310937881469727 -3,8.967937469482422 -3,7.310937404632568 C-3,7.310937404632568 -3,-2.09375 -3,-2.09375 C-3,-3.7507500648498535 -1.656999945640564,-5.09375 0,-5.09375 C1.656999945640564,-5.09375 3,-3.7507500648498535 3,-2.09375z"></path></g></g><g transform="matrix(1,0,0,1,157.875,73.4729995727539)" opacity="1" style="display: block;"><g opacity="1" transform="matrix(1,0,0,1,-74.94200134277344,1.5269999504089355)"><path fill="rgb(255,255,255)" fill-opacity="1" d=" M3,-17 C3,-17 3,17 3,17 C3,18.656999588012695 1.656999945640564,20 0,20 C-1.656999945640564,20 -3,18.656999588012695 -3,17 C-3,17 -3,-17 -3,-17 C-3,-18.656999588012695 -1.656999945640564,-20 0,-20 C1.656999945640564,-20 3,-18.656999588012695 3,-17z"></path></g></g><g transform="matrix(1,0,0,1,121.875,73.4729995727539)" opacity="1" style="display: block;"><g opacity="1" transform="matrix(1,0,0,1,-74.94200134277344,1.5269999504089355)"><path fill="rgb(255,255,255)" fill-opacity="1" d=" M2.999218702316284,-2.015625 C2.999218702316284,-2.015625 2.999218702316284,7.246874809265137 2.999218702316284,7.246874809265137 C2.999218702316284,8.903875350952148 1.6562187671661377,10.246874809265137 -0.0007812500116415322,10.246874809265137 C-1.6577812433242798,10.246874809265137 -3.000781297683716,8.903875350952148 -3.000781297683716,7.246874809265137 C-3.000781297683716,7.246874809265137 -3.000781297683716,-2.015625 -3.000781297683716,-2.015625 C-3.000781297683716,-3.6726250648498535 -1.6577812433242798,-5.015625 -0.0007812500116415322,-5.015625 C1.6562187671661377,-5.015625 2.999218702316284,-3.6726250648498535 2.999218702316284,-2.015625z"></path></g></g><g transform="matrix(1,0,0,1,169.875,73.4729995727539)" opacity="1" style="display: block;"><g opacity="1" transform="matrix(1,0,0,1,-74.94200134277344,1.5269999504089355)"><path fill="rgb(255,255,255)" fill-opacity="1" d=" M2.999218702316284,-2.004687547683716 C2.999218702316284,-2.004687547683716 2.999218702316284,7.235937595367432 2.999218702316284,7.235937595367432 C2.999218702316284,8.892937660217285 1.6562187671661377,10.235937118530273 -0.0007812500116415322,10.235937118530273 C-1.6577812433242798,10.235937118530273 -3.000781297683716,8.892937660217285 -3.000781297683716,7.235937595367432 C-3.000781297683716,7.235937595367432 -3.000781297683716,-2.004687547683716 -3.000781297683716,-2.004687547683716 C-3.000781297683716,-3.6616876125335693 -1.6577812433242798,-5.004687309265137 -0.0007812500116415322,-5.004687309265137 C1.6562187671661377,-5.004687309265137 2.999218702316284,-3.6616876125335693 2.999218702316284,-2.004687547683716z"></path></g></g><g transform="matrix(1,0,0,1,133.75,73.4729995727539)" opacity="1" style="display: block;"><g opacity="1" transform="matrix(1,0,0,1,-74.94200134277344,1.5269999504089355)"><path fill="rgb(255,255,255)" fill-opacity="1" d=" M3,-25.285938262939453 C3,-25.285938262939453 3,26.032812118530273 3,26.032812118530273 C3,27.68981170654297 1.656999945640564,29.032812118530273 0,29.032812118530273 C-1.656999945640564,29.032812118530273 -3,27.68981170654297 -3,26.032812118530273 C-3,26.032812118530273 -3,-25.285938262939453 -3,-25.285938262939453 C-3,-26.94293785095215 -1.656999945640564,-28.285938262939453 0,-28.285938262939453 C1.656999945640564,-28.285938262939453 3,-26.94293785095215 3,-25.285938262939453z"></path></g></g><g transform="matrix(1,0,0,1,181.75,73.4729995727539)" opacity="1" style="display: block;"><g opacity="1" transform="matrix(1,0,0,1,-74.94200134277344,1.5269999504089355)"><path fill="rgb(255,255,255)" fill-opacity="1" d=" M3,-25.198436737060547 C3,-25.198436737060547 3,25.943750381469727 3,25.943750381469727 C3,27.600749969482422 1.656999945640564,28.943750381469727 0,28.943750381469727 C-1.656999945640564,28.943750381469727 -3,27.600749969482422 -3,25.943750381469727 C-3,25.943750381469727 -3,-25.198436737060547 -3,-25.198436737060547 C-3,-26.855438232421875 -1.656999945640564,-28.198436737060547 0,-28.198436737060547 C1.656999945640564,-28.198436737060547 3,-26.855438232421875 3,-25.198436737060547z"></path></g></g><g transform="matrix(1,0,0,1,145.75,73.4729995727539)" opacity="1" style="display: block;"><g opacity="1" transform="matrix(1,0,0,1,-74.94200134277344,1.5269999504089355)"><path fill="rgb(255,255,255)" fill-opacity="1" d=" M3,-2.0093750953674316 C3,-2.0093750953674316 3,7.25 3,7.25 C3,8.906999588012695 1.656999945640564,10.25 0,10.25 C-1.656999945640564,10.25 -3,8.906999588012695 -3,7.25 C-3,7.25 -3,-2.0093750953674316 -3,-2.0093750953674316 C-3,-3.666374921798706 -1.656999945640564,-5.009375095367432 0,-5.009375095367432 C1.656999945640564,-5.009375095367432 3,-3.666374921798706 3,-2.0093750953674316z"></path></g></g><g transform="matrix(1,0,0,1,193.875,73.4729995727539)" opacity="1" style="display: block;"><g opacity="1" transform="matrix(1,0,0,1,-74.94200134277344,1.5269999504089355)"><path fill="rgb(255,255,255)" fill-opacity="1" d=" M3,-2.09375 C3,-2.09375 3,7.310937404632568 3,7.310937404632568 C3,8.967937469482422 1.656999945640564,10.310937881469727 0,10.310937881469727 C-1.656999945640564,10.310937881469727 -3,8.967937469482422 -3,7.310937404632568 C-3,7.310937404632568 -3,-2.09375 -3,-2.09375 C-3,-3.7507500648498535 -1.656999945640564,-5.09375 0,-5.09375 C1.656999945640564,-5.09375 3,-3.7507500648498535 3,-2.09375z"></path></g></g><g transform="matrix(1,0,0,1,205.875,73.4729995727539)" opacity="1" style="display: block;"><g opacity="1" transform="matrix(1,0,0,1,-74.94200134277344,1.5269999504089355)"><path fill="rgb(255,255,255)" fill-opacity="1" d=" M2.999218702316284,-17.087499618530273 C2.999218702316284,-17.087499618530273 2.999218702316284,17.107812881469727 2.999218702316284,17.107812881469727 C2.999218702316284,18.764812469482422 1.6562187671661377,20.107812881469727 -0.0007812500116415322,20.107812881469727 C-1.6577812433242798,20.107812881469727 -3.000781297683716,18.764812469482422 -3.000781297683716,17.107812881469727 C-3.000781297683716,17.107812881469727 -3.000781297683716,-17.087499618530273 -3.000781297683716,-17.087499618530273 C-3.000781297683716,-18.74449920654297 -1.6577812433242798,-20.087499618530273 -0.0007812500116415322,-20.087499618530273 C1.6562187671661377,-20.087499618530273 2.999218702316284,-18.74449920654297 2.999218702316284,-17.087499618530273z"></path></g></g><g transform="matrix(1,0,0,1,253.75,73.4729995727539)" opacity="1" style="display: block;"><g opacity="1" transform="matrix(1,0,0,1,-74.94200134277344,1.5269999504089355)"><path fill="rgb(255,255,255)" fill-opacity="1" d=" M3,-2.0250000953674316 C3,-2.0250000953674316 3,7.245312690734863 3,7.245312690734863 C3,8.902312278747559 1.656999945640564,10.245312690734863 0,10.245312690734863 C-1.656999945640564,10.245312690734863 -3,8.902312278747559 -3,7.245312690734863 C-3,7.245312690734863 -3,-2.0250000953674316 -3,-2.0250000953674316 C-3,-3.681999921798706 -1.656999945640564,-5.025000095367432 0,-5.025000095367432 C1.656999945640564,-5.025000095367432 3,-3.681999921798706 3,-2.0250000953674316z"></path></g></g><g transform="matrix(1,0,0,1,217.875,73.4729995727539)" opacity="1" style="display: block;"><g opacity="1" transform="matrix(1,0,0,1,-74.94200134277344,1.5269999504089355)"><path fill="rgb(255,255,255)" fill-opacity="1" d=" M2.999218702316284,-2.0234375 C2.999218702316284,-2.0234375 2.999218702316284,7.246874809265137 2.999218702316284,7.246874809265137 C2.999218702316284,8.903875350952148 1.6562187671661377,10.246874809265137 -0.0007812500116415322,10.246874809265137 C-1.6577812433242798,10.246874809265137 -3.000781297683716,8.903875350952148 -3.000781297683716,7.246874809265137 C-3.000781297683716,7.246874809265137 -3.000781297683716,-2.0234375 -3.000781297683716,-2.0234375 C-3.000781297683716,-3.6804375648498535 -1.6577812433242798,-5.0234375 -0.0007812500116415322,-5.0234375 C1.6562187671661377,-5.0234375 2.999218702316284,-3.6804375648498535 2.999218702316284,-2.0234375z"></path></g></g><g transform="matrix(1,0,0,1,229.875,73.4729995727539)" opacity="1" style="display: block;"><g opacity="1" transform="matrix(1,0,0,1,-74.94200134277344,1.5269999504089355)"><path fill="rgb(255,255,255)" fill-opacity="1" d=" M2.999218702316284,-2.0453124046325684 C2.999218702316284,-2.0453124046325684 2.999218702316284,7.276562690734863 2.999218702316284,7.276562690734863 C2.999218702316284,8.933562278747559 1.6562187671661377,10.276562690734863 -0.0007812500116415322,10.276562690734863 C-1.6577812433242798,10.276562690734863 -3.000781297683716,8.933562278747559 -3.000781297683716,7.276562690734863 C-3.000781297683716,7.276562690734863 -3.000781297683716,-2.0453124046325684 -3.000781297683716,-2.0453124046325684 C-3.000781297683716,-3.702312469482422 -1.6577812433242798,-5.045312404632568 -0.0007812500116415322,-5.045312404632568 C1.6562187671661377,-5.045312404632568 2.999218702316284,-3.702312469482422 2.999218702316284,-2.0453124046325684z"></path></g></g><g transform="matrix(1,0,0,1,241.75,73.4729995727539)" opacity="1" style="display: block;"><g opacity="1" transform="matrix(1,0,0,1,-74.94200134277344,1.5269999504089355)"><path fill="rgb(255,255,255)" fill-opacity="1" d=" M3,-25.198436737060547 C3,-25.198436737060547 3,25.943750381469727 3,25.943750381469727 C3,27.600749969482422 1.656999945640564,28.943750381469727 0,28.943750381469727 C-1.656999945640564,28.943750381469727 -3,27.600749969482422 -3,25.943750381469727 C-3,25.943750381469727 -3,-25.198436737060547 -3,-25.198436737060547 C-3,-26.855438232421875 -1.656999945640564,-28.198436737060547 0,-28.198436737060547 C1.656999945640564,-28.198436737060547 3,-26.855438232421875 3,-25.198436737060547z"></path></g></g></g></svg>